<?xml version="1.0" standalone="no"?>
<!DOCTYPE svg PUBLIC "-//W3C//DTD SVG 20010904//EN"
 "http://www.w3.org/TR/2001/REC-SVG-20010904/DTD/svg10.dtd">
<svg version="1.0" xmlns="http://www.w3.org/2000/svg"
 width="1280.000000pt" height="1177.000000pt" viewBox="0 0 1280.000000 1177.000000"
 preserveAspectRatio="xMidYMid meet">
<metadata>
Created by potrace 1.15, written by Peter Selinger 2001-2017
</metadata>
<g transform="translate(0.000000,1177.000000) scale(0.100000,-0.100000)"
fill="#000000" stroke="none">
<path d="M8710 11123 c-207 -9 -447 -43 -657 -93 -120 -29 -361 -106 -438
-140 -22 -10 -65 -28 -95 -41 -187 -78 -410 -207 -655 -379 -221 -155 -292
-191 -411 -210 -145 -24 -278 28 -539 210 -392 274 -733 434 -1150 540 -277
70 -502 98 -810 98 -468 0 -871 -82 -1305 -265 -436 -184 -885 -512 -1179
-858 -42 -49 -86 -101 -98 -115 -36 -41 -155 -209 -212 -300 -30 -47 -62 -97
-72 -111 -27 -40 -153 -295 -187 -379 -179 -445 -252 -813 -252 -1278 0 -472
62 -794 245 -1262 73 -188 257 -520 357 -645 4 -5 23 -29 40 -51 149 -188 222
-270 513 -573 61 -62 124 -128 140 -145 17 -18 125 -131 240 -251 116 -121
260 -271 320 -334 61 -63 167 -174 236 -245 70 -72 141 -147 159 -166 18 -19
125 -131 239 -249 113 -118 217 -226 231 -241 14 -15 122 -127 240 -250 118
-123 226 -235 240 -250 45 -48 442 -462 561 -585 109 -113 329 -342 394 -410
278 -292 526 -551 777 -810 74 -77 175 -183 224 -235 209 -222 287 -290 399
-350 l60 -32 -30 33 c-16 19 6 -1 50 -43 44 -43 85 -78 90 -78 5 0 48 37 95
82 46 46 69 66 50 45 l-35 -38 55 27 c30 15 84 48 120 75 86 63 1003 990 1794
1813 32 34 111 115 175 181 291 302 409 424 587 610 106 110 211 220 234 245
23 25 90 95 149 155 123 128 494 516 531 555 22 24 217 227 540 564 253 265
473 495 526 552 16 18 49 54 74 80 102 110 238 277 300 369 19 28 38 55 42 60
17 20 92 142 125 200 102 184 208 429 263 610 12 39 26 81 30 95 25 71 63 251
92 433 29 191 37 626 14 827 -18 149 -56 362 -82 460 -43 157 -69 239 -104
330 -12 30 -25 66 -30 80 -17 53 -150 334 -181 380 -9 14 -36 59 -59 100 -251
434 -673 857 -1135 1135 -428 258 -946 424 -1440 460 -92 7 -314 11 -395 8z
m532 -593 c565 -84 1091 -342 1496 -731 254 -245 429 -487 581 -801 64 -133
71 -151 127 -311 200 -579 189 -1238 -31 -1832 -95 -257 -281 -577 -445 -765
-12 -14 -45 -52 -73 -85 -83 -95 -203 -223 -487 -518 -63 -66 -126 -132 -140
-147 -21 -22 -340 -356 -445 -465 -16 -17 -120 -125 -230 -240 -278 -291 -412
-431 -540 -564 -60 -63 -123 -129 -140 -146 -16 -17 -127 -132 -245 -255 -118
-123 -226 -236 -240 -250 -81 -86 -756 -783 -1070 -1104 -664 -681 -722 -731
-882 -772 -76 -20 -160 -14 -240 16 -114 42 -213 129 -548 476 -145 150 -543
565 -580 604 -14 15 -122 127 -240 250 -118 123 -226 235 -240 250 -14 15
-122 127 -240 250 -118 123 -226 235 -240 250 -39 41 -432 451 -555 579 -131
136 -145 151 -395 411 -107 112 -215 224 -240 250 -25 26 -133 138 -240 250
-107 113 -249 261 -316 330 -67 69 -134 139 -150 156 -312 329 -327 346 -428
464 -40 48 -179 235 -184 250 -3 8 -9 17 -13 20 -3 3 -26 39 -50 80 -351 603
-456 1338 -289 2025 43 176 137 432 210 570 66 125 155 277 177 305 7 8 38 52
70 97 78 110 145 187 282 324 475 474 1105 753 1775 788 607 30 1175 -124
1671 -455 170 -113 264 -193 465 -391 191 -189 228 -220 294 -255 l39 -20 -23
34 c-32 46 -6 18 74 -79 37 -46 71 -83 74 -83 4 1 40 43 81 95 72 92 105 127
60 63 l-23 -31 55 29 c37 20 120 94 264 236 232 229 328 310 507 428 371 245
801 395 1265 440 142 14 479 3 635 -20z"/>
</g>
</svg>
